# xmcd CD database file generated by Grip 2.95
# 
# Track frame offsets:
#       151
#       19522
#       33739
#       52134
#       67603
#       88670
#       108819
#       124044
#       142680
#       154576
# 
# Disc length: 2319 seconds
# 
# Revision: 3
# Processed by: cddbd v1.4b41PL3 Copyright (c) Steve Scherf et al.
# Submitted via: Grip 2.95
# 
DISCID=73090d0a
DTITLE=Jessica Andrews - Jessica Andrews Comp.
DYEAR=1900
DGENRE=
TTITLE0=Why'd You Have To Go and Love Me
TTITLE1=Never Had It So Good
TTITLE2=Every Little Girl's Dream
TTITLE3=Say
TTITLE4=You Deliver Me
TTITLE5=The Chance
TTITLE6=Deeper
TTITLE7=What the Woman Stands For
TTITLE8=What's Wrong With You
TTITLE9=Who I Am
EXTD=
EXTT0=
EXTT1=
EXTT2=
EXTT3=
EXTT4=
EXTT5=
EXTT6=
EXTT7=
EXTT8=
EXTT9=
PLAYORDER=
